<svg xmlns="http://www.w3.org/2000/svg" viewBox="0 0 192 192" width="192" height="192" fill="none" role="img" aria-label="OneTask"><defs><filter id="soft-shadow" x="-30%" y="-30%" width="160%" height="160%"><feDropShadow dx="0" dy="4" stdDeviation="6" flood-color="#000000" flood-opacity="0.18"/></filter><linearGradient id="chassis-edge" x1="0.3" y1="0" x2="0.7" y2="1"><stop offset="0%" stop-color="#FFFFFF" stop-opacity="0.55"/><stop offset="42%" stop-color="#FFFFFF" stop-opacity="0.15"/><stop offset="100%" stop-color="#FFFFFF" stop-opacity="0.03"/></linearGradient><linearGradient id="beacon-grad" x1="0.12" y1="0" x2="0.88" y2="1"><stop offset="0%" stop-color="#FDE68A"/><stop offset="55%" stop-color="#FBBF24"/><stop offset="100%" stop-color="#D97706"/></linearGradient><filter id="subtle-shadow" x="-20%" y="-20%" width="140%" height="140%"><feDropShadow dx="0" dy="4" stdDeviation="5" flood-color="#000000" flood-opacity="0.25"/></filter><linearGradient id="task-body" x1="40" y1="44" x2="154" y2="150" gradientUnits="userSpaceOnUse"><stop offset="0%" stop-color="#86EFAC"/><stop offset="45%" stop-color="#16A34A"/><stop offset="100%" stop-color="#14532D"/></linearGradient><linearGradient id="task-mark" x1="62" y1="120" x2="154" y2="48" gradientUnits="userSpaceOnUse"><stop offset="0%" stop-color="#4ADE80"/><stop offset="60%" stop-color="#86EFAC"/><stop offset="100%" stop-color="#BBF7D0"/></linearGradient></defs><path d="M 118 42 L 68 42 C 53.6 42 42 53.6 42 68 L 42 124 C 42 138.4 53.6 150 68 150 L 124 150 C 138.4 150 150 138.4 150 124 L 150 108"stroke="url(#task-body)" stroke-width="15" stroke-linecap="round" stroke-linejoin="round" fill="none" filter="url(#soft-shadow)"/><path d="M 68 98 L 90 120 L 152 50" stroke="url(#task-mark)" stroke-width="17" stroke-linecap="round" stroke-linejoin="round" fill="none" filter="url(#soft-shadow)"/><circle cx="152" cy="50" r="8.5" fill="url(#beacon-grad)"/><circle cx="152" cy="50" r="3.40" fill="#FFFFFF"/></svg>
