<svg xmlns="http://www.w3.org/2000/svg" viewBox="0 0 40 40">
  <path d="M 19 12 L 21 12 C 22 12 23 13.5 23 15.5 L 22 22 L 22.5 25 C 22.5 27 21.8 28.5 20.8 29.5 L 19.2 29.5 C 18.2 28.5 17.5 27 17.5 25 L 18 22 L 17 15.5 C 17 13.5 18 12 19 12 Z" fill="#00FF00"/>
  <rect x="19" y="3" width="2" height="7.5" rx="1" fill="#1F2937"/>
  <line x1="14" y1="11" x2="26" y2="11" stroke="#FFFFFF" stroke-width="1.5" stroke-linecap="round"/>
  <polygon points="20,9.5 21.5,12 18.5,12" fill="#1F2937"/>
  <ellipse cx="20" cy="16.5" rx="2.5" ry="3.5" fill="#E5E7EB"/>
  <rect x="18.5" y="21.5" width="3" height="5.5" rx="1" fill="#4B5563"/>
  <rect x="19" y="30" width="2" height="7.5" rx="1" fill="#1F2937"/>
</svg>
