<svg xmlns="http://www.w3.org/2000/svg" viewBox="0 0 40 40">
  <path d="M 16.5 8 C 17.5 7.5 22.5 7.5 23.5 8 C 25 8.5 25.5 10 25.5 11.5 L 25.5 30.5 C 25.5 32 24.5 32.5 23.5 32.5 L 16.5 32.5 C 15.5 32.5 14.5 32 14.5 30.5 L 14.5 11.5 C 14.5 10 15 8.5 16.5 8 Z" fill="#00FF00"/>
  <path d="M 16.5 9 C 18 8.5 22 8.5 23.5 9 C 24.5 9.5 24.8 10.2 24.8 11.2 L 15.2 11.2 C 15.2 10.2 15.5 9.5 16.5 9 Z" fill="#1F2937"/>
  <ellipse cx="20" cy="14" rx="2" ry="1.2" fill="#FFFFFF"/>
  <rect x="17" y="18" width="6" height="9" rx="1" fill="#1F2937"/>
  <rect x="18" y="19" width="4" height="7" rx="0.5" fill="#4B5563"/>
  <line x1="16" y1="31.5" x2="24" y2="31.5" stroke="#1F2937" stroke-width="0.8"/>
</svg>
